<svg xmlns="http://www.w3.org/2000/svg" viewBox="0 0 100 20">
  <!-- Everything visible by default -->
  <rect width="100" height="20" fill="white"></rect>

  <!-- Transparent star cutouts -->
  <path d="M10 1l2.9 6 6.6.9-4.8 4.6 1.2 6.5L10 16l-5.9 3 1.2-6.5L.5 7.9l6.6-.9z" fill="black"></path>
  <path d="M30 1l2.9 6 6.6.9-4.8 4.6 1.2 6.5L30 16l-5.9 3 1.2-6.5L20.5 7.9l6.6-.9z" fill="black"></path>
  <path d="M50 1l2.9 6 6.6.9-4.8 4.6 1.2 6.5L50 16l-5.9 3 1.2-6.5L40.5 7.9l6.6-.9z" fill="black"></path>
  <path d="M70 1l2.9 6 6.6.9-4.8 4.6 1.2 6.5L70 16l-5.9 3 1.2-6.5L60.5 7.9l6.6-.9z" fill="black"></path>
  <path d="M90 1l2.9 6 6.6.9-4.8 4.6 1.2 6.5L90 16l-5.9 3 1.2-6.5L80.5 7.9l6.6-.9z" fill="black"></path>
</svg>
